<?xml version="1.0" standalone="no"?>
<!DOCTYPE svg PUBLIC "-//W3C//DTD SVG 20010904//EN"
 "http://www.w3.org/TR/2001/REC-SVG-20010904/DTD/svg10.dtd">
<svg version="1.0" xmlns="http://www.w3.org/2000/svg"
 width="2100.000000pt" height="1500.000000pt" viewBox="0 0 2100.000000 1500.000000"
 preserveAspectRatio="xMidYMid meet">

<g transform="translate(0.000000,1500.000000) scale(0.100000,-0.100000)"
fill="#000000" stroke="none">
<path d="M11010 10995 c-187 -30 -374 -104 -543 -214 -135 -88 -304 -265 -375
-392 l-26 -45 -80 -11 c-175 -25 -368 -101 -541 -213 -49 -32 -126 -98 -197
-170 l-117 -119 -63 10 c-94 13 -261 11 -368 -6 -258 -39 -518 -161 -696 -327
-67 -62 -71 -65 -144 -76 -245 -37 -510 -166 -688 -336 -77 -73 -80 -75 -158
-91 -172 -35 -354 -113 -504 -215 -36 -24 -107 -84 -158 -134 -77 -75 -104
-94 -162 -117 -92 -36 -239 -117 -320 -178 -264 -198 -454 -522 -505 -861 -51
-330 25 -663 215 -955 61 -93 237 -273 326 -333 101 -68 244 -139 344 -172 52
-18 131 -49 175 -70 362 -175 809 -155 1165 51 l66 37 109 -37 c61 -21 144
-54 187 -74 146 -70 358 -117 528 -117 172 0 387 48 532 119 l77 37 35 -18
c20 -10 77 -32 128 -49 51 -17 129 -48 173 -69 150 -72 363 -120 535 -120 292
0 613 119 815 302 48 44 52 45 77 32 15 -8 69 -28 120 -45 51 -17 129 -48 173
-69 338 -163 757 -157 1098 15 60 30 115 55 124 55 8 0 56 -20 106 -44 272
-132 575 -159 874 -80 l93 24 74 -35 c387 -181 852 -144 1222 96 101 66 277
242 343 343 265 407 280 921 40 1328 l-31 53 16 85 c80 400 -36 808 -316 1107
-45 49 -103 117 -127 151 -60 85 -214 231 -308 293 -249 163 -505 236 -798
226 -130 -4 -145 -2 -205 20 -79 30 -82 32 -133 108 -55 80 -194 224 -282 289
-81 61 -251 154 -342 186 -46 17 -70 32 -90 59 -15 20 -61 72 -103 116 -41 45
-95 109 -119 143 -60 85 -214 231 -308 293 -173 113 -358 185 -553 214 -116
18 -296 18 -410 0z m370 -160 c278 -42 482 -147 681 -352 94 -96 162 -194 223
-321 44 -90 37 -86 185 -126 109 -31 258 -105 351 -175 115 -87 277 -269 336
-379 1 -1 53 -21 115 -43 l114 -39 135 6 c269 12 509 -52 729 -194 74 -48 278
-252 324 -325 98 -153 155 -305 182 -487 19 -122 19 -202 -1 -320 -32 -195
-33 -181 34 -310 88 -167 142 -374 142 -545 0 -93 -23 -240 -55 -349 -69 -237
-248 -479 -463 -625 -215 -146 -510 -221 -759 -193 -136 15 -271 51 -385 102
-48 22 -97 40 -107 40 -11 0 -62 -11 -113 -25 -283 -76 -560 -49 -826 80 -63
30 -123 55 -135 55 -12 0 -80 -29 -152 -65 -148 -74 -264 -109 -427 -127 -251
-28 -553 49 -759 194 -164 116 -170 116 -291 2 -178 -167 -403 -266 -670 -296
-251 -28 -553 49 -759 194 -94 66 -132 88 -156 88 -12 0 -77 -27 -145 -60
-211 -103 -431 -145 -636 -122 -207 23 -380 85 -556 200 -99 65 -121 66 -207
10 -162 -105 -341 -168 -541 -190 -250 -28 -543 47 -760 193 -81 55 -225 194
-294 286 -158 210 -245 528 -216 791 7 59 23 150 37 202 30 114 115 290 184
380 62 82 178 197 256 255 70 53 227 135 305 160 45 15 73 36 160 120 58 55
132 119 165 142 132 89 294 154 456 183 97 17 96 17 195 110 50 48 118 105
150 127 140 96 309 161 484 187 104 16 117 22 206 106 169 160 367 255 619
295 116 19 200 19 336 -1 131 -19 149 -14 202 54 53 70 203 213 272 259 145
98 309 160 492 188 51 8 103 20 117 27 14 7 42 40 61 73 56 92 93 138 180 225
104 104 178 159 296 220 210 108 460 150 689 115z"/>
</g>
</svg>
