<?xml version="1.0" encoding="iso-8859-1"?>
<!-- Generator: Adobe Illustrator 19.0.0, SVG Export Plug-In . SVG Version: 6.00 Build 0)  -->
<svg version="1.1" id="Capa_1" xmlns="http://www.w3.org/2000/svg" xmlns:xlink="http://www.w3.org/1999/xlink" x="0px" y="0px"
	 viewBox="0 0 470 470" style="enable-background:new 0 0 470 470;" xml:space="preserve">
<g>
	<path d="M455.94,181.138c-1.132-2.266-4.577-9.158-30.806-15.26c-15.577-3.624-34.264-5.703-51.272-5.703
		c-14.017,0-26.86,1.387-37.755,4.047c-2.878-40.586-28.915-85.308-40.478-103.358C291.639,54.634,256.035,0,235,0
		s-56.639,54.634-60.63,60.863c-11.563,18.051-37.599,62.772-40.478,103.358c-10.895-2.66-23.738-4.047-37.755-4.047
		c-17.009,0-35.697,2.079-51.273,5.702c-26.228,6.103-29.673,12.995-30.805,15.26c-6.795,13.596,14.284,50.222,18.579,57.426
		c7.976,13.379,29.356,45.911,55.561,59.009c4.889,2.444,9.944,4.511,15.105,6.177c-4.042,11.414-7.147,23.201-8.9,33.896
		c-3.674,22.41,0.608,27.465,2.221,29.369c1.625,1.917,5.942,7.01,28.96,7.01c29.953,0,72.128-8.42,93.947-26.909
		c2.824-2.393,5.478-4.914,7.967-7.55V462.5c0,4.143,3.358,7.5,7.5,7.5s7.5-3.357,7.5-7.5V339.563
		c2.489,2.636,5.143,5.157,7.967,7.55c21.817,18.487,63.993,26.909,93.951,26.909c23.011,0,27.331-5.093,28.958-7.012
		c1.612-1.902,5.894-6.957,2.22-29.367c-1.753-10.694-4.858-22.481-8.9-33.896c5.161-1.666,10.217-3.732,15.105-6.176
		c26.206-13.099,47.586-45.631,55.562-59.01C441.656,231.358,462.735,194.732,455.94,181.138z M355.073,291.433
		c-2.123,0.502-3.921,1.902-4.928,3.837c-1.007,1.936-1.121,4.213-0.314,6.238c10.207,25.609,13.366,49.462,11.939,55.631
		c-1.899,0.72-7.123,1.884-17.356,1.884c-27.483,0-66.351-8.186-84.25-23.353c-5.837-4.946-10.828-10.51-14.905-16.596
		l87.739-54.102c3.526-2.174,4.622-6.795,2.447-10.32c-2.174-3.525-6.793-4.623-10.32-2.447L242.5,303.153V127.5
		c0-4.143-3.358-7.5-7.5-7.5s-7.5,3.357-7.5,7.5v175.652l-82.623-50.945c-3.526-2.176-8.147-1.078-10.32,2.447
		c-2.174,3.525-1.079,8.146,2.447,10.32l87.736,54.099c-4.077,6.086-9.068,11.65-14.905,16.597
		c-17.9,15.168-56.768,23.353-84.25,23.353c-10.229,0-15.456-1.164-17.356-1.885c-1.427-6.17,1.733-30.022,11.939-55.63
		c0.807-2.025,0.693-4.303-0.314-6.238c-1.007-1.935-2.806-3.335-4.928-3.837c-6.875-1.625-13.611-4.073-20.021-7.278
		c-15.415-7.704-32.94-26.337-48.084-51.12c-14.215-23.264-19.414-40.461-19.21-45.136c5.395-4.604,34.636-12.724,68.525-12.724
		c16.775,0,31.462,2.105,42.473,6.087c2.321,0.84,4.908,0.482,6.916-0.954c2.008-1.438,3.18-3.771,3.133-6.239
		c-0.017-0.891-0.027-1.783-0.027-2.679c0-26.678,13.698-63.564,37.582-101.202c16.413-25.864,31.955-42.949,41.286-50.597V97.5
		c0,4.143,3.358,7.5,7.5,7.5s7.5-3.357,7.5-7.5V19.591c9.331,7.648,24.872,24.732,41.286,50.597
		c23.883,37.638,37.582,74.524,37.582,101.202c0,0.896-0.01,1.788-0.027,2.679c-0.046,2.469,1.125,4.802,3.133,6.239
		c2.008,1.438,4.595,1.795,6.916,0.954c11.011-3.981,25.698-6.087,42.473-6.087c33.888,0,63.129,8.12,68.525,12.724
		c0.204,4.675-4.995,21.872-19.21,45.136c-15.144,24.783-32.669,43.416-48.084,51.121
		C368.683,287.359,361.948,289.808,355.073,291.433z"/>
</g>
<g>
</g>
<g>
</g>
<g>
</g>
<g>
</g>
<g>
</g>
<g>
</g>
<g>
</g>
<g>
</g>
<g>
</g>
<g>
</g>
<g>
</g>
<g>
</g>
<g>
</g>
<g>
</g>
<g>
</g>
</svg>
